<svg id="eb113788-f1f1-4c1f-be62-f1d0ea2e1eb6" data-name="Layer 1" xmlns="http://www.w3.org/2000/svg" xmlns:xlink="http://www.w3.org/1999/xlink" width="397.69715" height="287.01901" viewBox="0 0 795.39431 574.03802">
  <defs>
    <linearGradient id="b2a81085-935f-40be-bb27-75940df8c338" x1="-450.78971" y1="2803.04671" x2="-450.78971" y2="2729.34772" gradientTransform="translate(3217.53309 1009.65784) rotate(90)" gradientUnits="userSpaceOnUse">
      <stop offset="0" stop-color="gray" stop-opacity="0.25"/>
      <stop offset="0.53514" stop-color="gray" stop-opacity="0.12"/>
      <stop offset="1" stop-color="gray" stop-opacity="0.1"/>
    </linearGradient>
  </defs>
  <title>Graduation</title>
  <ellipse cx="232.05775" cy="450.06897" rx="35.09476" ry="5.26421" transform="translate(-476.55674 294.92367) rotate(-63.61079)" fill="#e0e0e0"/>
  <ellipse cx="670.57742" cy="667.85592" rx="35.09476" ry="3.57677" transform="translate(-428.03695 808.73554) rotate(-63.61079)" fill="#e0e0e0"/>
  <rect x="397.95325" y="566.93514" width="21.05685" height="70.18951" transform="translate(274.52069 -285.26226) rotate(39.54732)" fill="#f55f44"/>
  <rect x="409.32507" y="573.56618" width="23.69234" height="70.18951" transform="translate(489.54965 1134.58125) rotate(-166.7689)" opacity="0.05"/>
  <rect x="411.92558" y="573.86778" width="21.05685" height="70.18951" transform="translate(492.0121 1135.47005) rotate(-166.7689)" fill="#f55f44"/>
  <rect x="414.48638" y="314.08219" width="73.69899" height="489.57186" transform="translate(-452.20218 551.7936) rotate(-63.61079)" fill="url(#b2a81085-935f-40be-bb27-75940df8c338)"/>
  <path d="M655.01556,699.105c-8.584-4.11751-444.8438-220.718-438.55625-217.5983,24.21371-36.95739,31.19689-62.87545,31.19689-62.87545l438.55625,217.5983S670.81132,663.25857,655.01556,699.105Z" transform="translate(-202.30284 -162.98099)" fill="#f5f5f5"/>
  <rect x="421.72508" y="519.09383" width="40.35897" height="70.18951" transform="translate(90.06389 -301.64381) rotate(26.38921)" opacity="0.05"/>
  <rect x="423.47981" y="519.09383" width="36.8495" height="70.18951" transform="translate(90.06389 -301.64381) rotate(26.38921)" fill="#f55f44"/>
  <rect x="428.83545" y="518.70387" width="24.56633" height="70.18951" transform="translate(89.80867 -301.33512) rotate(26.38921)" opacity="0.05"/>
  <rect x="430.59019" y="518.70387" width="21.05685" height="70.18951" transform="translate(89.80867 -301.33512) rotate(26.38921)" fill="#f55f44"/>
  <circle cx="261.30557" cy="563.92499" r="2.92569" fill="#dbdbdb"/>
  <g opacity="0.5">
    <rect x="29.39431" y="482" width="3" height="17" fill="#47e6b1"/>
    <rect x="231.69716" y="644.98099" width="3" height="17" transform="translate(684.3753 257.30284) rotate(90)" fill="#47e6b1"/>
  </g>
  <!-- ... (rest of your SVG content) ... -->
</svg>
